solid OpenSCAD_Model
  facet normal 1 0 0
    outer loop
      vertex 21.5 -1.5 7.5
      vertex 21.5 -7.5 7.5
      vertex 21.5 -1.5 1
    endloop
  endfacet
  facet normal 1 0 0
    outer loop
      vertex 21.5 1.5 1
      vertex 21.5 7.5 7.5
      vertex 21.5 1.5 7.5
    endloop
  endfacet
  facet normal 1 0 0
    outer loop
      vertex 21.5 7.5 7.5
      vertex 21.5 1.5 1
      vertex 21.5 7.5 -7.5
    endloop
  endfacet
  facet normal 1 -0 0
    outer loop
      vertex 21.5 -1.5 1
      vertex 21.5 7.5 -7.5
      vertex 21.5 1.5 1
    endloop
  endfacet
  facet normal 1 0 0
    outer loop
      vertex 21.5 -1.5 1
      vertex 21.5 -7.5 -7.5
      vertex 21.5 7.5 -7.5
    endloop
  endfacet
  facet normal 1 0 0
    outer loop
      vertex 21.5 -7.5 -7.5
      vertex 21.5 -1.5 1
      vertex 21.5 -7.5 7.5
    endloop
  endfacet
  facet normal 0 0 1
    outer loop
      vertex -1.5 21.5 7.5
      vertex -7.5 21.5 7.5
      vertex -1.5 1.6 7.5
    endloop
  endfacet
  facet normal 0 0 1
    outer loop
      vertex 1.5 7.5 7.5
      vertex 7.5 7.5 7.5
      vertex 7.5 21.5 7.5
    endloop
  endfacet
  facet normal 0 -0 1
    outer loop
      vertex 1.6 1.5 7.5
      vertex 7.5 7.5 7.5
      vertex 1.5 7.5 7.5
    endloop
  endfacet
  facet normal 0 0 1
    outer loop
      vertex 7.5 7.5 7.5
      vertex 1.6 1.5 7.5
      vertex 7.5 1.5 7.5
    endloop
  endfacet
  facet normal 0 0 1
    outer loop
      vertex 1.5 7.5 7.5
      vertex 7.5 21.5 7.5
      vertex 1.5 21.5 7.5
    endloop
  endfacet
  facet normal -0 0 1
    outer loop
      vertex 7.5 7.5 7.5
      vertex 21.5 1.5 7.5
      vertex 21.5 7.5 7.5
    endloop
  endfacet
  facet normal 0 0 1
    outer loop
      vertex 21.5 1.5 7.5
      vertex 7.5 7.5 7.5
      vertex 7.5 1.5 7.5
    endloop
  endfacet
  facet normal -0 0 1
    outer loop
      vertex 1.6 -1.5 7.5
      vertex 21.5 -7.5 7.5
      vertex 21.5 -1.5 7.5
    endloop
  endfacet
  facet normal -0 0 1
    outer loop
      vertex 1.5 1.6 7.5
      vertex 1.6 1.5 7.5
      vertex 1.5 7.5 7.5
    endloop
  endfacet
  facet normal 0 0 1
    outer loop
      vertex 1.6 1.5 7.5
      vertex 1.5 1.6 7.5
      vertex 1.6 -1.5 7.5
    endloop
  endfacet
  facet normal -0 0 1
    outer loop
      vertex -1.5 1.6 7.5
      vertex 1.6 -1.5 7.5
      vertex 1.5 1.6 7.5
    endloop
  endfacet
  facet normal 0 0 1
    outer loop
      vertex 1.6 -1.5 7.5
      vertex -7.5 -7.5 7.5
      vertex 21.5 -7.5 7.5
    endloop
  endfacet
  facet normal 0 0 1
    outer loop
      vertex -1.5 1.6 7.5
      vertex -7.5 -7.5 7.5
      vertex 1.6 -1.5 7.5
    endloop
  endfacet
  facet normal 0 0 1
    outer loop
      vertex -7.5 -7.5 7.5
      vertex -1.5 1.6 7.5
      vertex -7.5 21.5 7.5
    endloop
  endfacet
  facet normal 0 0 -1
    outer loop
      vertex 21.5 -7.5 -7.5
      vertex 7.5 7.5 -7.5
      vertex 21.5 7.5 -7.5
    endloop
  endfacet
  facet normal 0 0 -1
    outer loop
      vertex -7.5 -7.5 -7.5
      vertex 7.5 7.5 -7.5
      vertex 21.5 -7.5 -7.5
    endloop
  endfacet
  facet normal 0 0 -1
    outer loop
      vertex -7.5 21.5 -7.5
      vertex 7.5 7.5 -7.5
      vertex -7.5 -7.5 -7.5
    endloop
  endfacet
  facet normal 0 0 -1
    outer loop
      vertex 7.5 7.5 -7.5
      vertex -7.5 21.5 -7.5
      vertex 7.5 21.5 -7.5
    endloop
  endfacet
  facet normal -1 0 0
    outer loop
      vertex 1.5 7.5 1
      vertex 1.5 21.5 7.5
      vertex 1.5 21.5 1
    endloop
  endfacet
  facet normal -1 -0 0
    outer loop
      vertex 1.5 21.5 7.5
      vertex 1.5 7.5 1
      vertex 1.5 7.5 7.5
    endloop
  endfacet
  facet normal -1 0 0
    outer loop
      vertex 1.5 1.6 1
      vertex 1.5 7.5 7.5
      vertex 1.5 7.5 1
    endloop
  endfacet
  facet normal -1 -0 0
    outer loop
      vertex 1.5 7.5 7.5
      vertex 1.5 1.6 1
      vertex 1.5 1.6 7.5
    endloop
  endfacet
  facet normal 0 1 -0
    outer loop
      vertex 21.5 7.5 -7.5
      vertex 7.5 7.5 7.5
      vertex 21.5 7.5 7.5
    endloop
  endfacet
  facet normal 0 1 0
    outer loop
      vertex 7.5 7.5 7.5
      vertex 21.5 7.5 -7.5
      vertex 7.5 7.5 -7.5
    endloop
  endfacet
  facet normal 0 -1 0
    outer loop
      vertex -7.5 -7.5 -7.5
      vertex 21.5 -7.5 7.5
      vertex -7.5 -7.5 7.5
    endloop
  endfacet
  facet normal 0 -1 -0
    outer loop
      vertex 21.5 -7.5 7.5
      vertex -7.5 -7.5 -7.5
      vertex 21.5 -7.5 -7.5
    endloop
  endfacet
  facet normal -0 0 1
    outer loop
      vertex 7.5 1.5 1
      vertex 21.5 -1.5 1
      vertex 21.5 1.5 1
    endloop
  endfacet
  facet normal 0 0 1
    outer loop
      vertex 1.6 -1.5 1
      vertex 7.5 1.5 1
      vertex 1.6 1.5 1
    endloop
  endfacet
  facet normal 0 0 1
    outer loop
      vertex 7.5 1.5 1
      vertex 1.6 -1.5 1
      vertex 21.5 -1.5 1
    endloop
  endfacet
  facet normal 0 -1 0
    outer loop
      vertex 7.5 1.5 1
      vertex 21.5 1.5 7.5
      vertex 7.5 1.5 7.5
    endloop
  endfacet
  facet normal 0 -1 -0
    outer loop
      vertex 21.5 1.5 7.5
      vertex 7.5 1.5 1
      vertex 21.5 1.5 1
    endloop
  endfacet
  facet normal 0 -1 0
    outer loop
      vertex 1.6 1.5 1
      vertex 7.5 1.5 7.5
      vertex 1.6 1.5 7.5
    endloop
  endfacet
  facet normal 0 -1 -0
    outer loop
      vertex 7.5 1.5 7.5
      vertex 1.6 1.5 1
      vertex 7.5 1.5 1
    endloop
  endfacet
  facet normal 0 1 -0
    outer loop
      vertex 21.5 -1.5 1
      vertex 1.6 -1.5 7.5
      vertex 21.5 -1.5 7.5
    endloop
  endfacet
  facet normal 0 1 0
    outer loop
      vertex 1.6 -1.5 7.5
      vertex 21.5 -1.5 1
      vertex 1.6 -1.5 1
    endloop
  endfacet
  facet normal 0 1 0
    outer loop
      vertex 7.5 21.5 7.5
      vertex 1.5 21.5 1
      vertex 1.5 21.5 7.5
    endloop
  endfacet
  facet normal 0 1 0
    outer loop
      vertex 1.5 21.5 1
      vertex 7.5 21.5 -7.5
      vertex -1.5 21.5 1
    endloop
  endfacet
  facet normal 0 1 -0
    outer loop
      vertex 7.5 21.5 -7.5
      vertex 1.5 21.5 1
      vertex 7.5 21.5 7.5
    endloop
  endfacet
  facet normal 0 1 -0
    outer loop
      vertex -1.5 21.5 1
      vertex -7.5 21.5 7.5
      vertex -1.5 21.5 7.5
    endloop
  endfacet
  facet normal 0 1 0
    outer loop
      vertex -1.5 21.5 1
      vertex -7.5 21.5 -7.5
      vertex -7.5 21.5 7.5
    endloop
  endfacet
  facet normal 0 1 0
    outer loop
      vertex -7.5 21.5 -7.5
      vertex -1.5 21.5 1
      vertex 7.5 21.5 -7.5
    endloop
  endfacet
  facet normal -1 0 0
    outer loop
      vertex -7.5 -7.5 -7.5
      vertex -7.5 21.5 7.5
      vertex -7.5 21.5 -7.5
    endloop
  endfacet
  facet normal -1 -0 0
    outer loop
      vertex -7.5 21.5 7.5
      vertex -7.5 -7.5 -7.5
      vertex -7.5 -7.5 7.5
    endloop
  endfacet
  facet normal 1 -0 0
    outer loop
      vertex 7.5 7.5 7.5
      vertex 7.5 21.5 -7.5
      vertex 7.5 21.5 7.5
    endloop
  endfacet
  facet normal 1 0 0
    outer loop
      vertex 7.5 21.5 -7.5
      vertex 7.5 7.5 7.5
      vertex 7.5 7.5 -7.5
    endloop
  endfacet
  facet normal -0 0 1
    outer loop
      vertex -1.5 21.5 1
      vertex 1.5 7.5 1
      vertex 1.5 21.5 1
    endloop
  endfacet
  facet normal 0 0 1
    outer loop
      vertex -1.5 1.6 1
      vertex 1.5 7.5 1
      vertex -1.5 21.5 1
    endloop
  endfacet
  facet normal 0 0 1
    outer loop
      vertex 1.5 7.5 1
      vertex -1.5 1.6 1
      vertex 1.5 1.6 1
    endloop
  endfacet
  facet normal 1 -0 0
    outer loop
      vertex -1.5 1.6 7.5
      vertex -1.5 21.5 1
      vertex -1.5 21.5 7.5
    endloop
  endfacet
  facet normal 1 0 0
    outer loop
      vertex -1.5 21.5 1
      vertex -1.5 1.6 7.5
      vertex -1.5 1.6 1
    endloop
  endfacet
  facet normal 1 -0 0
    outer loop
      vertex 1.6 -1.5 7.5
      vertex 1.6 1.5 1
      vertex 1.6 1.5 7.5
    endloop
  endfacet
  facet normal 1 0 0
    outer loop
      vertex 1.6 1.5 1
      vertex 1.6 -1.5 7.5
      vertex 1.6 -1.5 1
    endloop
  endfacet
  facet normal 0 1 -0
    outer loop
      vertex 1.5 1.6 1
      vertex -1.5 1.6 7.5
      vertex 1.5 1.6 7.5
    endloop
  endfacet
  facet normal 0 1 0
    outer loop
      vertex -1.5 1.6 7.5
      vertex 1.5 1.6 1
      vertex -1.5 1.6 1
    endloop
  endfacet
endsolid OpenSCAD_Model
